<svg width="185" height="84" viewBox="0 0 185 84" fill="none" xmlns="http://www.w3.org/2000/svg">
<path d="M33.2623 75.2031C27.3248 80.4375 21.0358 83.0547 14.3952 83.0547C5.09828 83.0547 0.449844 79.3438 0.449844 71.9219C0.449844 70.9062 0.567032 69.8125 0.801407 68.6406C2.20766 60.4375 7.59828 55.3594 16.9733 53.4062C21.5045 52.5469 25.9967 51.6875 30.4498 50.8281C34.3561 50.0469 37.0123 49.1094 38.4186 48.0156L38.7702 45.5547C39.1608 43.5234 39.3561 41.7266 39.3561 40.1641C39.3561 33.5234 35.7233 30.2031 28.4577 30.2031C22.0514 30.2031 16.5436 32.9766 11.9342 38.5234H10.9967L12.2858 32.3125C18.3014 27.9375 24.9811 25.75 32.3248 25.75C42.7936 25.75 48.028 30.1641 48.028 38.9922C48.028 40.8672 47.7936 43.0156 47.3248 45.4375L47.0905 46.8438L42.5202 70.1641C42.2077 71.8828 42.0514 73.2109 42.0514 74.1484C42.0514 76.6484 43.4967 77.8984 46.3873 77.8984C47.2467 77.8984 47.9108 77.8594 48.3795 77.7812V80.125C43.9264 81.375 40.6061 82 38.4186 82C34.8248 82 33.1061 79.7344 33.2623 75.2031ZM37.2467 52.9375C27.7936 54.5 21.3873 56.0625 18.028 57.625C13.8873 59.5781 11.4264 62.7422 10.6452 67.1172C10.4889 68.1328 10.4108 69.1094 10.4108 70.0469C10.4108 75.5156 13.3014 78.25 19.0827 78.25C23.4577 78.25 27.6764 76.5312 31.7389 73.0938C33.3014 71.7656 34.2389 70.0859 34.5514 68.0547L37.2467 52.9375ZM70.0536 6.29688C70.288 4.65625 71.0692 3.28906 72.3973 2.19531C73.8036 1.02344 75.327 0.4375 76.9677 0.4375C78.6083 0.4375 79.8973 1.02344 80.8348 2.19531C81.8505 3.28906 82.2411 4.65625 82.0067 6.29688C81.6942 7.9375 80.8348 9.34375 79.4286 10.5156C78.1005 11.6875 76.6161 12.2734 74.9755 12.2734C73.3348 12.2734 72.0067 11.6875 70.9911 10.5156C70.0536 9.34375 69.7411 7.9375 70.0536 6.29688ZM57.8661 82C62.0067 62.4688 65.2489 44.0312 67.5927 26.6875C68.9989 27 70.5614 27.1562 72.2802 27.1562C74.1552 27.1562 75.7958 27 77.202 26.6875C73.3739 44.1875 70.1317 62.625 67.4755 82C65.8348 81.6094 64.2723 81.4141 62.788 81.4141C61.3817 81.4141 59.7411 81.6094 57.8661 82ZM87.9777 82C88.9933 77.625 90.3214 70.8281 91.962 61.6094L93.4855 53.2891C94.5011 47.1953 95.9073 38.3281 97.7042 26.6875C99.1105 27 100.673 27.1562 102.392 27.1562C104.189 27.1562 105.751 27 107.079 26.6875C106.767 28.0938 106.103 31.4922 105.087 36.8828C110.868 29.3047 117.665 25.5156 125.478 25.5156C135.946 25.5156 141.181 30.3984 141.181 40.1641C141.181 42.1172 140.985 44.2266 140.595 46.4922C140.282 48.4453 139.735 51.3359 138.954 55.1641C138.173 58.9141 137.626 61.6875 137.314 63.4844C136.298 69.2656 135.36 75.4375 134.501 82C132.704 81.6094 131.103 81.4141 129.696 81.4141C128.368 81.4141 126.767 81.6094 124.892 82C126.767 73.7969 128.915 62.7422 131.337 48.8359C131.728 46.6484 131.923 44.6953 131.923 42.9766C131.923 35.3203 128.329 31.4922 121.142 31.4922C116.532 31.4922 112.587 33.1719 109.306 36.5312C106.025 39.8906 103.603 45.9844 102.04 54.8125L101.103 60.0859C99.2277 70.7109 98.0948 78.0156 97.7042 82C95.9073 81.6094 94.2667 81.4141 92.7823 81.4141C91.4542 81.4141 89.8527 81.6094 87.9777 82ZM152.074 31.6094C152.464 30.2031 152.699 29.2266 152.777 28.6797C152.855 28.1328 152.933 27.4688 153.011 26.6875C155.433 26.9219 157.933 27.0391 160.511 27.0391L161.214 23.1719C161.605 20.6719 162.074 17.3906 162.62 13.3281C166.449 12.7031 169.769 11.7266 172.581 10.3984C171.41 15.4766 170.745 18.5625 170.589 19.6562L169.183 27.3906C173.48 27.3906 178.597 27.1562 184.535 26.6875C184.144 27.8594 183.792 29.1484 183.48 30.5547L183.363 31.4922C179.222 31.2578 175.667 31.1406 172.699 31.1406C170.745 31.1406 169.3 31.1797 168.363 31.2578L167.191 37.1172C166.722 39.3828 165.863 43.5234 164.613 49.5391C163.441 55.5547 162.542 60.4766 161.917 64.3047C161.449 66.8828 161.214 69.0312 161.214 70.75C161.214 76.2969 163.831 79.0703 169.066 79.0703C171.175 79.0703 174.066 78.25 177.738 76.6094L178.089 79.1875C173.636 81.8438 169.144 83.1719 164.613 83.1719C156.253 83.1719 152.074 79.6562 152.074 72.625C152.074 70.9844 152.23 69.1484 152.542 67.1172C152.777 65.9453 153.597 61.8438 155.003 54.8125C156.488 47.7031 157.738 41.1797 158.753 35.2422L159.456 31.2578H158.167C156.214 31.2578 154.183 31.375 152.074 31.6094Z" fill="white"/>
</svg>
