<svg width="317" height="74" viewBox="0 0 317 74" fill="none" xmlns="http://www.w3.org/2000/svg">
<path d="M33.1016 65.2031C27.1641 70.4375 20.875 73.0547 14.2344 73.0547C4.9375 73.0547 0.289062 69.3438 0.289062 61.9219C0.289062 60.9062 0.40625 59.8125 0.640625 58.6406C2.04688 50.4375 7.4375 45.3594 16.8125 43.4062C21.3438 42.5469 25.8359 41.6875 30.2891 40.8281C34.1953 40.0469 36.8516 39.1094 38.2578 38.0156L38.6094 35.5547C39 33.5234 39.1953 31.7266 39.1953 30.1641C39.1953 23.5234 35.5625 20.2031 28.2969 20.2031C21.8906 20.2031 16.3828 22.9766 11.7734 28.5234H10.8359L12.125 22.3125C18.1406 17.9375 24.8203 15.75 32.1641 15.75C42.6328 15.75 47.8672 20.1641 47.8672 28.9922C47.8672 30.8672 47.6328 33.0156 47.1641 35.4375L46.9297 36.8438L42.3594 60.1641C42.0469 61.8828 41.8906 63.2109 41.8906 64.1484C41.8906 66.6484 43.3359 67.8984 46.2266 67.8984C47.0859 67.8984 47.75 67.8594 48.2188 67.7812V70.125C43.7656 71.375 40.4453 72 38.2578 72C34.6641 72 32.9453 69.7344 33.1016 65.2031ZM37.0859 42.9375C27.6328 44.5 21.2266 46.0625 17.8672 47.625C13.7266 49.5781 11.2656 52.7422 10.4844 57.1172C10.3281 58.1328 10.25 59.1094 10.25 60.0469C10.25 65.5156 13.1406 68.25 18.9219 68.25C23.2969 68.25 27.5156 66.5312 31.5781 63.0938C33.1406 61.7656 34.0781 60.0859 34.3906 58.0547L37.0859 42.9375ZM96.4944 72.1172L96.8459 70.0078C97.0803 68.8359 97.4319 66.375 97.9006 62.625C92.8225 69.7344 85.9475 73.2891 77.2756 73.2891C66.9631 73.2891 61.8069 68.6406 61.8069 59.3438C61.8069 57.7031 62.0022 55.9062 62.3928 53.9531C62.4709 53.4062 63.135 50.0859 64.385 43.9922C65.635 37.8984 66.7678 32.1172 67.7834 26.6484C68.1741 24.2266 68.6819 20.9062 69.3069 16.6875C70.5569 17 72.0803 17.1562 73.8772 17.1562C75.6741 17.1562 77.3928 17 79.0334 16.6875C75.8303 27.8594 73.2912 38.875 71.4162 49.7344C70.9475 52.2344 70.7131 54.4219 70.7131 56.2969C70.7131 63.9531 74.4631 67.7812 81.9631 67.7812C88.4475 67.7812 93.4084 64.9688 96.8459 59.3438C98.7991 56.2188 101.182 46.8047 103.994 31.1016C104.854 26.1797 105.518 21.375 105.987 16.6875C107.393 17 108.994 17.1562 110.791 17.1562C112.51 17.1562 114.072 17 115.479 16.6875C114.072 22.625 111.963 33.5625 109.151 49.5C107.588 58.5625 106.377 66.0625 105.518 72C104.033 71.8438 102.822 71.7656 101.885 71.7656C100.088 71.7656 98.2912 71.8828 96.4944 72.1172ZM122.973 71.8828C125.004 62.6641 127.465 49.9297 130.356 33.6797C131.606 26.5703 132.387 20.9062 132.7 16.6875C134.184 17 135.825 17.1562 137.622 17.1562C139.497 17.1562 141.176 17 142.661 16.6875C141.567 20.4375 140.59 24.7344 139.731 29.5781C145.59 20.5938 151.254 16.1016 156.723 16.1016C157.582 16.1016 159.028 16.2969 161.059 16.6875C160.356 18.7187 159.653 21.6875 158.95 25.5938L157.895 26.1797C156.176 25.1641 154.379 24.6562 152.504 24.6562C148.129 24.6562 144.653 26.5703 142.075 30.3984C139.497 34.2266 137.504 40.2031 136.098 48.3281C134.301 58.25 133.09 66.1406 132.465 72C131.059 71.6875 129.418 71.5312 127.543 71.5312C126.059 71.5312 124.536 71.6484 122.973 71.8828ZM172.772 39.5391H203.592L203.944 37.5469C204.257 35.6719 204.413 33.9141 204.413 32.2734C204.413 23.5234 200.467 19.1484 192.577 19.1484C188.046 19.1484 183.983 20.9453 180.389 24.5391C176.639 28.3672 174.1 33.3672 172.772 39.5391ZM205.35 66.375C198.475 70.8281 191.444 73.0547 184.257 73.0547C177.069 73.0547 171.405 71.0234 167.264 66.9609C163.124 62.8984 161.053 57.4297 161.053 50.5547C161.053 48.6016 161.249 46.5703 161.639 44.4609C163.124 35.7109 166.796 28.7188 172.655 23.4844C178.514 18.1719 185.507 15.5156 193.632 15.5156C206.757 15.5156 213.319 21.7656 213.319 34.2656C213.319 36.375 213.124 38.6406 212.733 41.0625C212.577 41.6094 212.382 42.4688 212.147 43.6406H171.835L171.717 43.9922C171.249 46.7266 171.014 49.2656 171.014 51.6094C171.014 62.7812 176.405 68.3672 187.186 68.3672C193.827 68.3672 200.311 65.75 206.639 60.5156C206.092 62.5469 205.741 64.0312 205.585 64.9688L205.35 66.375ZM220.345 72C221.36 67.625 222.688 60.8281 224.329 51.6094L225.852 43.2891C226.868 37.1953 228.274 28.3281 230.071 16.6875C231.477 17 233.04 17.1562 234.759 17.1562C236.556 17.1562 238.118 17 239.446 16.6875C239.134 18.0938 238.47 21.4922 237.454 26.8828C243.235 19.3047 250.032 15.5156 257.845 15.5156C268.313 15.5156 273.548 20.3984 273.548 30.1641C273.548 32.1172 273.352 34.2266 272.962 36.4922C272.649 38.4453 272.102 41.3359 271.321 45.1641C270.54 48.9141 269.993 51.6875 269.681 53.4844C268.665 59.2656 267.727 65.4375 266.868 72C265.071 71.6094 263.47 71.4141 262.063 71.4141C260.735 71.4141 259.134 71.6094 257.259 72C259.134 63.7969 261.282 52.7422 263.704 38.8359C264.095 36.6484 264.29 34.6953 264.29 32.9766C264.29 25.3203 260.696 21.4922 253.509 21.4922C248.899 21.4922 244.954 23.1719 241.673 26.5312C238.392 29.8906 235.97 35.9844 234.407 44.8125L233.47 50.0859C231.595 60.7109 230.462 68.0156 230.071 72C228.274 71.6094 226.634 71.4141 225.149 71.4141C223.821 71.4141 222.22 71.6094 220.345 72ZM284.441 21.6094C284.831 20.2031 285.066 19.2266 285.144 18.6797C285.222 18.1328 285.3 17.4688 285.378 16.6875C287.8 16.9219 290.3 17.0391 292.878 17.0391L293.581 13.1719C293.972 10.6719 294.441 7.39062 294.987 3.32812C298.816 2.70312 302.136 1.72656 304.948 0.398438C303.777 5.47656 303.112 8.5625 302.956 9.65625L301.55 17.3906C305.847 17.3906 310.964 17.1562 316.902 16.6875C316.511 17.8594 316.159 19.1484 315.847 20.5547L315.73 21.4922C311.589 21.2578 308.034 21.1406 305.066 21.1406C303.112 21.1406 301.667 21.1797 300.73 21.2578L299.558 27.1172C299.089 29.3828 298.23 33.5234 296.98 39.5391C295.808 45.5547 294.909 50.4766 294.284 54.3047C293.816 56.8828 293.581 59.0312 293.581 60.75C293.581 66.2969 296.198 69.0703 301.433 69.0703C303.542 69.0703 306.433 68.25 310.105 66.6094L310.456 69.1875C306.003 71.8438 301.511 73.1719 296.98 73.1719C288.62 73.1719 284.441 69.6562 284.441 62.625C284.441 60.9844 284.597 59.1484 284.909 57.1172C285.144 55.9453 285.964 51.8438 287.37 44.8125C288.855 37.7031 290.105 31.1797 291.12 25.2422L291.823 21.2578H290.534C288.581 21.2578 286.55 21.375 284.441 21.6094Z" fill="white"/>
</svg>
