<svg width="15" height="16" viewBox="0 0 15 16" fill="none" xmlns="http://www.w3.org/2000/svg">
<g clip-path="url(#clip0_231_1308)">
<path d="M0.566138 1.38548C0.4895 1.30884 0.479271 1.19 0.536315 1.10274L0.575708 1.0571C0.652404 0.988778 0.765166 0.981594 0.84888 1.03631L0.898436 1.07909L7.14646 7.3268L7.50001 7.68032L7.85355 7.3268L14.1146 1.06615L13.7812 0.732788L14.1146 1.06614C14.2028 0.977956 14.3457 0.977956 14.4339 1.06614C14.522 1.15432 14.522 1.29729 14.4339 1.38547L14.4338 1.38549L8.17322 7.64647L7.8197 8.00001L8.17322 8.35355L14.4338 14.6146L14.4339 14.6146C14.5105 14.6912 14.5207 14.81 14.4637 14.8972L14.4242 14.9429C14.3476 15.0112 14.2349 15.0184 14.1512 14.9637L14.1016 14.9209L7.85355 8.67322L7.50001 8.3197L7.14647 8.67322L0.885488 14.9338L0.885472 14.9339C0.797293 15.022 0.654323 15.022 0.566144 14.9339C0.477956 14.8457 0.477956 14.7028 0.566144 14.6146L0.232788 14.2812L0.566148 14.6146L6.8268 8.35355L7.18032 8.00001L6.8268 7.64646L0.566147 1.38549L0.566138 1.38548Z" fill="#333333" stroke="black"/>
</g>
<defs>
<clipPath id="clip0_231_1308">
<rect width="15" height="15" fill="white" transform="translate(0 0.5)"/>
</clipPath>
</defs>
</svg>
