<svg width="20" height="20" viewBox="0 0 20 20" fill="none" xmlns="http://www.w3.org/2000/svg">
<path d="M9.38697 11.6102C9.39523 11.0157 9.46334 10.5822 9.59132 10.3098C9.7193 10.0373 9.9608 9.74007 10.3158 9.41807C10.6626 9.10432 10.9289 8.81328 11.1146 8.54494C11.3004 8.27661 11.3933 7.98969 11.3933 7.6842C11.3933 7.31266 11.2695 7.00304 11.0218 6.75535C10.7741 6.50765 10.4273 6.3838 9.98144 6.3838C9.5521 6.3838 9.22184 6.50559 8.99066 6.74915C8.75948 6.99272 8.59022 7.24661 8.48288 7.51082L7.44257 7.05258C7.62421 6.56545 7.93176 6.15056 8.36523 5.80791C8.7987 5.46527 9.33743 5.29395 9.98144 5.29395C10.8071 5.29395 11.4428 5.52306 11.8887 5.9813C12.3345 6.43953 12.5575 6.99066 12.5575 7.63466C12.5575 8.03097 12.4728 8.39013 12.3036 8.71214C12.1343 9.03414 11.8639 9.37266 11.4924 9.72769C11.0878 10.1157 10.8442 10.413 10.7617 10.6194C10.6791 10.8258 10.6337 11.1561 10.6254 11.6102H9.38697ZM9.98144 14.7064C9.742 14.7064 9.53765 14.6217 9.36839 14.4525C9.19914 14.2832 9.11451 14.0789 9.11451 13.8394C9.11451 13.6 9.19914 13.3956 9.36839 13.2264C9.53765 13.0571 9.742 12.9725 9.98144 12.9725C10.2209 12.9725 10.4252 13.0571 10.5945 13.2264C10.7637 13.3956 10.8484 13.6 10.8484 13.8394C10.8484 14.0789 10.7637 14.2832 10.5945 14.4525C10.4252 14.6217 10.2209 14.7064 9.98144 14.7064Z" fill="black"/>
<circle cx="10" cy="10" r="7.84765" stroke="black"/>
</svg>
