<svg width="20" height="20" viewBox="0 0 20 20" fill="none" xmlns="http://www.w3.org/2000/svg">
<path d="M10 17.4798L9.14584 16.709C7.67362 15.3618 6.45834 14.1986 5.50001 13.2194C4.54167 12.2402 3.77778 11.3652 3.20834 10.5944C2.63889 9.82357 2.23959 9.12565 2.01042 8.50065C1.78126 7.87565 1.66667 7.24371 1.66667 6.60482C1.66667 5.35482 2.08681 4.30968 2.92709 3.4694C3.76737 2.62912 4.80556 2.20898 6.04167 2.20898C6.83334 2.20898 7.56598 2.39648 8.23959 2.77148C8.9132 3.14648 9.50001 3.68815 10 4.39648C10.5833 3.64648 11.2014 3.0944 11.8542 2.74023C12.507 2.38607 13.2083 2.20898 13.9583 2.20898C15.1945 2.20898 16.2326 2.62912 17.0729 3.4694C17.9132 4.30968 18.3333 5.35482 18.3333 6.60482C18.3333 7.24371 18.2188 7.87565 17.9896 8.50065C17.7604 9.12565 17.3611 9.82357 16.7917 10.5944C16.2222 11.3652 15.4583 12.2402 14.5 13.2194C13.5417 14.1986 12.3264 15.3618 10.8542 16.709L10 17.4798ZM10 15.834C11.4028 14.5423 12.559 13.4347 13.4688 12.5111C14.3785 11.5875 15.1007 10.7784 15.6354 10.084C16.1701 9.38954 16.5451 8.77148 16.7604 8.22982C16.9757 7.68815 17.0833 7.14648 17.0833 6.60482C17.0833 5.68815 16.7917 4.93468 16.2083 4.3444C15.625 3.75412 14.875 3.45898 13.9583 3.45898C13.25 3.45898 12.5903 3.67773 11.9792 4.11523C11.3681 4.55273 10.875 5.16732 10.5 5.95898H9.47917C9.11806 5.18121 8.63195 4.5701 8.02084 4.12565C7.40973 3.68121 6.75001 3.45898 6.04167 3.45898C5.12501 3.45898 4.37501 3.75412 3.79167 4.3444C3.20834 4.93468 2.91667 5.68815 2.91667 6.60482C2.91667 7.14648 3.02431 7.69162 3.23959 8.24023C3.45487 8.78885 3.82987 9.41384 4.36459 10.1152C4.89931 10.8166 5.62501 11.6257 6.54167 12.5423C7.45834 13.459 8.61112 14.5562 10 15.834Z" fill="black"/>
</svg>
