<svg width="20" height="20" viewBox="0 0 20 20" fill="none" xmlns="http://www.w3.org/2000/svg">
<path d="M9.99999 9.79102C10.4028 9.79102 10.7465 9.64866 11.0312 9.36393C11.316 9.07921 11.4583 8.73546 11.4583 8.33268C11.4583 7.9299 11.316 7.58615 11.0312 7.30143C10.7465 7.01671 10.4028 6.87435 9.99999 6.87435C9.59722 6.87435 9.25347 7.01671 8.96874 7.30143C8.68402 7.58615 8.54166 7.9299 8.54166 8.33268C8.54166 8.73546 8.68402 9.07921 8.96874 9.36393C9.25347 9.64866 9.59722 9.79102 9.99999 9.79102ZM9.99999 16.6868C11.8472 15.0063 13.2118 13.482 14.0937 12.1139C14.9757 10.7459 15.4167 9.54102 15.4167 8.49935C15.4167 6.86046 14.8924 5.52018 13.8437 4.47852C12.7951 3.43685 11.5139 2.91602 9.99999 2.91602C8.48611 2.91602 7.20486 3.43685 6.15624 4.47852C5.10763 5.52018 4.58333 6.86046 4.58333 8.49935C4.58333 9.54102 5.03472 10.7459 5.93749 12.1139C6.84027 13.482 8.19444 15.0063 9.99999 16.6868ZM9.99999 18.3327C7.76388 16.4299 6.09375 14.6625 4.98958 13.0306C3.88541 11.3987 3.33333 9.88824 3.33333 8.49935C3.33333 6.41602 4.00347 4.75629 5.34374 3.52018C6.68402 2.28407 8.23611 1.66602 9.99999 1.66602C11.7639 1.66602 13.316 2.28407 14.6562 3.52018C15.9965 4.75629 16.6667 6.41602 16.6667 8.49935C16.6667 9.88824 16.1146 11.3987 15.0104 13.0306C13.9062 14.6625 12.2361 16.4299 9.99999 18.3327Z" fill="black"/>
</svg>
