<svg width="20" height="20" viewBox="0 0 20 20" fill="none" xmlns="http://www.w3.org/2000/svg">
<path d="M10 9.97852C9.08334 9.97852 8.33334 9.68685 7.75 9.10352C7.16667 8.52018 6.875 7.77018 6.875 6.85352C6.875 5.93685 7.16667 5.18685 7.75 4.60352C8.33334 4.02018 9.08334 3.72852 10 3.72852C10.9167 3.72852 11.6667 4.02018 12.25 4.60352C12.8333 5.18685 13.125 5.93685 13.125 6.85352C13.125 7.77018 12.8333 8.52018 12.25 9.10352C11.6667 9.68685 10.9167 9.97852 10 9.97852V9.97852ZM3.33334 16.666V14.7077C3.33334 14.1799 3.46528 13.7285 3.72917 13.3535C3.99306 12.9785 4.33334 12.6938 4.75 12.4993C5.68056 12.0827 6.57292 11.7702 7.42709 11.5618C8.28125 11.3535 9.13889 11.2493 10 11.2493C10.8611 11.2493 11.7153 11.357 12.5625 11.5723C13.4097 11.7875 14.2986 12.0966 15.2292 12.4993C15.6597 12.6938 16.0069 12.9785 16.2708 13.3535C16.5347 13.7285 16.6667 14.1799 16.6667 14.7077V16.666H3.33334ZM4.58334 15.416H15.4167V14.7077C15.4167 14.4855 15.3507 14.2737 15.2188 14.0723C15.0868 13.8709 14.9236 13.7216 14.7292 13.6243C13.8403 13.1938 13.0278 12.8987 12.2917 12.7389C11.5556 12.5792 10.7917 12.4993 10 12.4993C9.20834 12.4993 8.4375 12.5792 7.6875 12.7389C6.9375 12.8987 6.125 13.1938 5.25 13.6243C5.05556 13.7216 4.89584 13.8709 4.77084 14.0723C4.64584 14.2737 4.58334 14.4855 4.58334 14.7077V15.416ZM10 8.72852C10.5417 8.72852 10.9896 8.55143 11.3438 8.19727C11.6979 7.8431 11.875 7.39518 11.875 6.85352C11.875 6.31185 11.6979 5.86393 11.3438 5.50977C10.9896 5.1556 10.5417 4.97852 10 4.97852C9.45834 4.97852 9.01042 5.1556 8.65625 5.50977C8.30209 5.86393 8.125 6.31185 8.125 6.85352C8.125 7.39518 8.30209 7.8431 8.65625 8.19727C9.01042 8.55143 9.45834 8.72852 10 8.72852Z" fill="black"/>
</svg>
