<svg width="20" height="20" viewBox="0 0 20 20" fill="none" xmlns="http://www.w3.org/2000/svg">
<path d="M16.5833 17.4785L11.1042 11.9993C10.6875 12.3605 10.2014 12.6417 9.64583 12.8431C9.09028 13.0445 8.5 13.1452 7.875 13.1452C6.375 13.1452 5.10417 12.6243 4.0625 11.5827C3.02083 10.541 2.5 9.28407 2.5 7.81185C2.5 6.33963 3.02083 5.08268 4.0625 4.04102C5.10417 2.99935 6.36806 2.47852 7.85417 2.47852C9.32639 2.47852 10.5799 2.99935 11.6146 4.04102C12.6493 5.08268 13.1667 6.33963 13.1667 7.81185C13.1667 8.40907 13.0694 8.98546 12.875 9.54102C12.6806 10.0966 12.3889 10.6174 12 11.1035L17.5 16.5618L16.5833 17.4785ZM7.85417 11.8952C8.97917 11.8952 9.9375 11.4959 10.7292 10.6973C11.5208 9.89865 11.9167 8.93685 11.9167 7.81185C11.9167 6.68685 11.5208 5.72504 10.7292 4.92643C9.9375 4.12782 8.97917 3.72852 7.85417 3.72852C6.71528 3.72852 5.74653 4.12782 4.94792 4.92643C4.14931 5.72504 3.75 6.68685 3.75 7.81185C3.75 8.93685 4.14931 9.89865 4.94792 10.6973C5.74653 11.4959 6.71528 11.8952 7.85417 11.8952V11.8952Z" fill="black"/>
</svg>
