<svg width="20" height="20" viewBox="0 0 20 20" fill="none" xmlns="http://www.w3.org/2000/svg">
<path d="M3.75 9.375C3.40278 9.375 3.10764 9.25347 2.86458 9.01042C2.62153 8.76736 2.5 8.47222 2.5 8.125V3.75C2.5 3.40278 2.62153 3.10764 2.86458 2.86458C3.10764 2.62153 3.40278 2.5 3.75 2.5H8.125C8.47222 2.5 8.76736 2.62153 9.01042 2.86458C9.25347 3.10764 9.375 3.40278 9.375 3.75V8.125C9.375 8.47222 9.25347 8.76736 9.01042 9.01042C8.76736 9.25347 8.47222 9.375 8.125 9.375H3.75ZM3.75 17.5C3.40278 17.5 3.10764 17.3785 2.86458 17.1354C2.62153 16.8924 2.5 16.5972 2.5 16.25V11.875C2.5 11.5278 2.62153 11.2326 2.86458 10.9896C3.10764 10.7465 3.40278 10.625 3.75 10.625H8.125C8.47222 10.625 8.76736 10.7465 9.01042 10.9896C9.25347 11.2326 9.375 11.5278 9.375 11.875V16.25C9.375 16.5972 9.25347 16.8924 9.01042 17.1354C8.76736 17.3785 8.47222 17.5 8.125 17.5H3.75ZM11.875 9.375C11.5278 9.375 11.2326 9.25347 10.9896 9.01042C10.7465 8.76736 10.625 8.47222 10.625 8.125V3.75C10.625 3.40278 10.7465 3.10764 10.9896 2.86458C11.2326 2.62153 11.5278 2.5 11.875 2.5H16.25C16.5972 2.5 16.8924 2.62153 17.1354 2.86458C17.3785 3.10764 17.5 3.40278 17.5 3.75V8.125C17.5 8.47222 17.3785 8.76736 17.1354 9.01042C16.8924 9.25347 16.5972 9.375 16.25 9.375H11.875ZM11.875 17.5C11.5278 17.5 11.2326 17.3785 10.9896 17.1354C10.7465 16.8924 10.625 16.5972 10.625 16.25V11.875C10.625 11.5278 10.7465 11.2326 10.9896 10.9896C11.2326 10.7465 11.5278 10.625 11.875 10.625H16.25C16.5972 10.625 16.8924 10.7465 17.1354 10.9896C17.3785 11.2326 17.5 11.5278 17.5 11.875V16.25C17.5 16.5972 17.3785 16.8924 17.1354 17.1354C16.8924 17.3785 16.5972 17.5 16.25 17.5H11.875ZM3.75 8.125H8.125V3.75H3.75V8.125ZM11.875 8.125H16.25V3.75H11.875V8.125ZM11.875 16.25H16.25V11.875H11.875V16.25ZM3.75 16.25H8.125V11.875H3.75V16.25Z" fill="black"/>
</svg>
