<svg width="149" height="59" viewBox="0 0 149 59" fill="none" xmlns="http://www.w3.org/2000/svg">
<path d="M13.3984 57C12.0703 46.6875 7.8125 28.25 0.625 1.6875C2.10938 2 3.82812 2.15625 5.78125 2.15625C7.8125 2.15625 9.6875 2 11.4062 1.6875C12.2656 11.2969 15.3906 26.1016 20.7812 46.1016C30.8594 31.5703 39.2578 16.7656 45.9766 1.6875C47.0703 2 48.2812 2.15625 49.6094 2.15625C51.0156 2.15625 52.2656 2 53.3594 1.6875C35.7031 29.7344 24.6875 48.1719 20.3125 57C19.5312 56.8438 18.3594 56.7656 16.7969 56.7656C15.3125 56.7656 14.1797 56.8438 13.3984 57ZM63.6662 24.5391H94.4866L94.8381 22.5469C95.1506 20.6719 95.3069 18.9141 95.3069 17.2734C95.3069 8.52344 91.3616 4.14844 83.4709 4.14844C78.9397 4.14844 74.8772 5.94531 71.2834 9.53906C67.5334 13.3672 64.9944 18.3672 63.6662 24.5391ZM96.2444 51.375C89.3694 55.8281 82.3381 58.0547 75.1506 58.0547C67.9631 58.0547 62.2991 56.0234 58.1584 51.9609C54.0178 47.8984 51.9475 42.4297 51.9475 35.5547C51.9475 33.6016 52.1428 31.5703 52.5334 29.4609C54.0178 20.7109 57.6897 13.7188 63.5491 8.48438C69.4084 3.17188 76.4006 0.515625 84.5256 0.515625C97.6506 0.515625 104.213 6.76562 104.213 19.2656C104.213 21.375 104.018 23.6406 103.627 26.0625C103.471 26.6094 103.276 27.4688 103.041 28.6406H62.7287L62.6116 28.9922C62.1428 31.7266 61.9084 34.2656 61.9084 36.6094C61.9084 47.7812 67.2991 53.3672 78.0803 53.3672C84.7209 53.3672 91.2053 50.75 97.5334 45.5156C96.9866 47.5469 96.635 49.0312 96.4787 49.9688L96.2444 51.375ZM110.301 44.8125C113.036 50.75 117.254 53.7188 122.957 53.7188C126.473 53.7188 129.403 52.7812 131.747 50.9062C134.168 48.9531 135.653 46.3359 136.2 43.0547C136.356 42.2734 136.434 41.5703 136.434 40.9453C136.434 37.5078 133.856 35.0078 128.7 33.4453L123.543 31.9219C116.668 29.8906 113.231 26.1016 113.231 20.5547C113.231 19.3828 113.348 18.1328 113.582 16.8047C114.364 12.1172 116.668 8.25 120.497 5.20312C124.325 2.15625 128.934 0.632812 134.325 0.632812C139.95 0.632812 144.598 1.92188 148.27 4.5C146.707 6.92188 145.457 9.38281 144.52 11.8828C141.004 6.72656 136.942 4.14844 132.332 4.14844C129.364 4.14844 126.786 5.08594 124.598 6.96094C122.489 8.75781 121.161 11.1016 120.614 13.9922C120.457 14.7734 120.379 15.4766 120.379 16.1016C120.379 19.6953 122.84 22.2734 127.762 23.8359L135.379 26.1797C141.473 28.0547 144.52 31.4922 144.52 36.4922C144.52 37.4297 144.403 38.4844 144.168 39.6562C143.309 44.9688 140.653 49.3828 136.2 52.8984C131.747 56.3359 126.434 58.0547 120.262 58.0547C114.168 58.0547 109.364 56.6484 105.848 53.8359C107.567 50.8672 109.051 47.8594 110.301 44.8125Z" fill="white"/>
</svg>
