<svg width="10" height="10" viewBox="0 0 10 10" fill="none" xmlns="http://www.w3.org/2000/svg">
<path d="M7.34267 6.58171C6.77653 7.16016 6.05498 7.85099 5.17626 8.65514C5.17582 8.65553 5.17539 8.65593 5.17495 8.65633L5 8.8142L4.82505 8.65633C4.82461 8.65593 4.82418 8.65553 4.82374 8.65514C3.94502 7.85099 3.22347 7.16016 2.65733 6.58171C2.09224 6.00433 1.65068 5.49729 1.32716 5.05935C1.00248 4.61984 0.79137 4.24356 0.675688 3.92807C0.557546 3.60586 0.5 3.28486 0.5 2.9627C0.5 2.33765 0.704682 1.84012 1.1098 1.435C1.51608 1.02872 2.00999 0.825195 2.625 0.825195C3.01726 0.825195 3.37281 0.917109 3.70055 1.09956C4.03143 1.28376 4.32935 1.55463 4.59152 1.92604L4.98053 2.47714L5.39468 1.94467C5.71368 1.53451 6.03435 1.25519 6.35094 1.08343C6.66866 0.911051 7.00742 0.825195 7.375 0.825195C7.99001 0.825195 8.48392 1.02872 8.8902 1.435C9.29532 1.84012 9.5 2.33765 9.5 2.9627C9.5 3.28486 9.44245 3.60586 9.32431 3.92807C9.20863 4.24356 8.99752 4.61984 8.67284 5.05935C8.34932 5.49729 7.90776 6.00433 7.34267 6.58171Z" stroke="#CD3232"/>
</svg>
