<svg width="20" height="21" viewBox="0 0 20 21" fill="none" xmlns="http://www.w3.org/2000/svg">
<path d="M10.0001 18.4427L9.14591 17.6719C7.67369 16.3247 6.45841 15.1615 5.50008 14.1823C4.54175 13.2031 3.77786 12.3281 3.20841 11.5573C2.63897 10.7865 2.23966 10.0885 2.0105 9.46354C1.78133 8.83854 1.66675 8.2066 1.66675 7.56771C1.66675 6.31771 2.08688 5.27257 2.92716 4.43229C3.76744 3.59201 4.80564 3.17188 6.04175 3.17188C6.83341 3.17188 7.56605 3.35936 8.23966 3.73436C8.91327 4.10936 9.50008 4.65104 10.0001 5.35937C10.5834 4.60937 11.2014 4.05728 11.8542 3.70311C12.507 3.34895 13.2084 3.17188 13.9584 3.17188C15.1945 3.17188 16.2327 3.59201 17.073 4.43229C17.9133 5.27257 18.3334 6.31771 18.3334 7.56771C18.3334 8.2066 18.2188 8.83854 17.9896 9.46354C17.7605 10.0885 17.3612 10.7865 16.7917 11.5573C16.2223 12.3281 15.4584 13.2031 14.5001 14.1823C13.5417 15.1615 12.3264 16.3247 10.8542 17.6719L10.0001 18.4427ZM10.0001 16.7969C11.4028 15.5052 12.5591 14.3976 13.4688 13.474C14.3785 12.5503 15.1008 11.7413 15.6355 11.0469C16.1702 10.3524 16.5452 9.73437 16.7605 9.19271C16.9758 8.65104 17.0834 8.10937 17.0834 7.56771C17.0834 6.65104 16.7917 5.89757 16.2084 5.30729C15.6251 4.71701 14.8751 4.42187 13.9584 4.42187C13.2501 4.42187 12.5903 4.64062 11.9792 5.07812C11.3681 5.51562 10.8751 6.13021 10.5001 6.92187H9.47925C9.11814 6.1441 8.63202 5.53299 8.02091 5.08854C7.4098 4.6441 6.75008 4.42187 6.04175 4.42187C5.12508 4.42187 4.37508 4.71701 3.79175 5.30729C3.20841 5.89757 2.91675 6.65104 2.91675 7.56771C2.91675 8.10937 3.02438 8.65451 3.23966 9.20312C3.45494 9.75174 3.82994 10.3767 4.36466 11.0781C4.89939 11.7795 5.62508 12.5885 6.54175 13.5052C7.45841 14.4219 8.61119 15.5191 10.0001 16.7969Z" fill="#C53030"/>
</svg>
