<svg width="20" height="21" viewBox="0 0 20 21" fill="none" xmlns="http://www.w3.org/2000/svg">
<path d="M9.99996 18.4427L9.14579 17.6719C7.67357 16.3247 6.45829 15.1615 5.49996 14.1823C4.54163 13.2031 3.77774 12.3281 3.20829 11.5573C2.63885 10.7865 2.23954 10.0885 2.01038 9.46354C1.78121 8.83854 1.66663 8.2066 1.66663 7.56771C1.66663 6.31771 2.08676 5.27257 2.92704 4.43229C3.76732 3.59201 4.80552 3.17188 6.04163 3.17188C6.83329 3.17188 7.56593 3.35937 8.23954 3.73437C8.91315 4.10937 9.49996 4.65104 9.99996 5.35937C10.5833 4.60937 11.2013 4.05729 11.8541 3.70312C12.5069 3.34896 13.2083 3.17188 13.9583 3.17188C15.1944 3.17188 16.2326 3.59201 17.0729 4.43229C17.9132 5.27257 18.3333 6.31771 18.3333 7.56771C18.3333 8.2066 18.2187 8.83854 17.9895 9.46354C17.7604 10.0885 17.3611 10.7865 16.7916 11.5573C16.2222 12.3281 15.4583 13.2031 14.5 14.1823C13.5416 15.1615 12.3263 16.3247 10.8541 17.6719L9.99996 18.4427ZM9.99996 16.7969C11.4027 15.5052 12.559 14.3976 13.4687 13.474C14.3784 12.5503 15.1007 11.7413 15.6354 11.0469C16.1701 10.3524 16.5451 9.73437 16.7604 9.19271C16.9757 8.65104 17.0833 8.10937 17.0833 7.56771C17.0833 6.65104 16.7916 5.89757 16.2083 5.30729C15.625 4.71701 14.875 4.42187 13.9583 4.42187C13.25 4.42187 12.5902 4.64062 11.9791 5.07812C11.368 5.51562 10.875 6.13021 10.5 6.92187H9.47913C9.11802 6.1441 8.6319 5.53299 8.02079 5.08854C7.40968 4.6441 6.74996 4.42187 6.04163 4.42187C5.12496 4.42187 4.37496 4.71701 3.79163 5.30729C3.20829 5.89757 2.91663 6.65104 2.91663 7.56771C2.91663 8.10937 3.02426 8.65451 3.23954 9.20312C3.45482 9.75174 3.82982 10.3767 4.36454 11.0781C4.89927 11.7795 5.62496 12.5885 6.54163 13.5052C7.45829 14.4219 8.61107 15.5191 9.99996 16.7969Z" fill="black"/>
</svg>
