<svg width="13" height="13" viewBox="0 0 13 13" fill="none" xmlns="http://www.w3.org/2000/svg">
<path d="M6.5 10.9867L5.9875 10.5242C5.10417 9.71589 4.375 9.01797 3.8 8.43047C3.225 7.84297 2.76667 7.31797 2.425 6.85547C2.08333 6.39297 1.84375 5.97422 1.70625 5.59922C1.56875 5.22422 1.5 4.84505 1.5 4.46172C1.5 3.71172 1.75208 3.08464 2.25625 2.58047C2.76042 2.0763 3.38333 1.82422 4.125 1.82422C4.6 1.82422 5.03958 1.93672 5.44375 2.16172C5.84792 2.38672 6.2 2.71172 6.5 3.13672C6.85 2.68672 7.22083 2.35547 7.6125 2.14297C8.00417 1.93047 8.425 1.82422 8.875 1.82422C9.61667 1.82422 10.2396 2.0763 10.7437 2.58047C11.2479 3.08464 11.5 3.71172 11.5 4.46172C11.5 4.84505 11.4312 5.22422 11.2937 5.59922C11.1562 5.97422 10.9167 6.39297 10.575 6.85547C10.2333 7.31797 9.775 7.84297 9.2 8.43047C8.625 9.01797 7.89583 9.71589 7.0125 10.5242L6.5 10.9867Z" fill="#CD3232"/>
</svg>
