<svg width="68" height="12" viewBox="0 0 68 12" fill="none" xmlns="http://www.w3.org/2000/svg">
<path d="M6 10.4877L5.4875 10.0252C4.60417 9.21686 3.875 8.51895 3.3 7.93145C2.725 7.34395 2.26667 6.81895 1.925 6.35645C1.58333 5.89395 1.34375 5.4752 1.20625 5.1002C1.06875 4.7252 1 4.34603 1 3.9627C1 3.2127 1.25208 2.58561 1.75625 2.08145C2.26042 1.57728 2.88333 1.3252 3.625 1.3252C4.1 1.3252 4.53958 1.4377 4.94375 1.6627C5.34792 1.8877 5.7 2.2127 6 2.6377C6.35 2.1877 6.72083 1.85645 7.1125 1.64395C7.50417 1.43145 7.925 1.3252 8.375 1.3252C9.11667 1.3252 9.73958 1.57728 10.2437 2.08145C10.7479 2.58561 11 3.2127 11 3.9627C11 4.34603 10.9312 4.7252 10.7937 5.1002C10.6562 5.4752 10.4167 5.89395 10.075 6.35645C9.73333 6.81895 9.275 7.34395 8.7 7.93145C8.125 8.51895 7.39583 9.21686 6.5125 10.0252L6 10.4877Z" fill="#CD3232"/>
<path d="M20 10.4877L19.4875 10.0252C18.6042 9.21686 17.875 8.51895 17.3 7.93145C16.725 7.34395 16.2667 6.81895 15.925 6.35645C15.5833 5.89395 15.3437 5.4752 15.2062 5.1002C15.0687 4.7252 15 4.34603 15 3.9627C15 3.2127 15.2521 2.58561 15.7563 2.08145C16.2604 1.57728 16.8833 1.3252 17.625 1.3252C18.1 1.3252 18.5396 1.4377 18.9437 1.6627C19.3479 1.8877 19.7 2.2127 20 2.6377C20.35 2.1877 20.7208 1.85645 21.1125 1.64395C21.5042 1.43145 21.925 1.3252 22.375 1.3252C23.1167 1.3252 23.7396 1.57728 24.2437 2.08145C24.7479 2.58561 25 3.2127 25 3.9627C25 4.34603 24.9312 4.7252 24.7937 5.1002C24.6562 5.4752 24.4167 5.89395 24.075 6.35645C23.7333 6.81895 23.275 7.34395 22.7 7.93145C22.125 8.51895 21.3958 9.21686 20.5125 10.0252L20 10.4877Z" fill="#CD3232"/>
<path d="M34 10.4877L33.4875 10.0252C32.6042 9.21686 31.875 8.51895 31.3 7.93145C30.725 7.34395 30.2667 6.81895 29.925 6.35645C29.5833 5.89395 29.3437 5.4752 29.2062 5.1002C29.0687 4.7252 29 4.34603 29 3.9627C29 3.2127 29.2521 2.58561 29.7563 2.08145C30.2604 1.57728 30.8833 1.3252 31.625 1.3252C32.1 1.3252 32.5396 1.4377 32.9437 1.6627C33.3479 1.8877 33.7 2.2127 34 2.6377C34.35 2.1877 34.7208 1.85645 35.1125 1.64395C35.5042 1.43145 35.925 1.3252 36.375 1.3252C37.1167 1.3252 37.7396 1.57728 38.2437 2.08145C38.7479 2.58561 39 3.2127 39 3.9627C39 4.34603 38.9312 4.7252 38.7937 5.1002C38.6562 5.4752 38.4167 5.89395 38.075 6.35645C37.7333 6.81895 37.275 7.34395 36.7 7.93145C36.125 8.51895 35.3958 9.21686 34.5125 10.0252L34 10.4877Z" fill="#CD3232"/>
<path d="M48 10.4877L47.4875 10.0252C46.6042 9.21686 45.875 8.51895 45.3 7.93145C44.725 7.34395 44.2667 6.81895 43.925 6.35645C43.5833 5.89395 43.3437 5.4752 43.2062 5.1002C43.0687 4.7252 43 4.34603 43 3.9627C43 3.2127 43.2521 2.58561 43.7563 2.08145C44.2604 1.57728 44.8833 1.3252 45.625 1.3252C46.1 1.3252 46.5396 1.4377 46.9437 1.6627C47.3479 1.8877 47.7 2.2127 48 2.6377C48.35 2.1877 48.7208 1.85645 49.1125 1.64395C49.5042 1.43145 49.925 1.3252 50.375 1.3252C51.1167 1.3252 51.7396 1.57728 52.2437 2.08145C52.7479 2.58561 53 3.2127 53 3.9627C53 4.34603 52.9312 4.7252 52.7937 5.1002C52.6562 5.4752 52.4167 5.89395 52.075 6.35645C51.7333 6.81895 51.275 7.34395 50.7 7.93145C50.125 8.51895 49.3958 9.21686 48.5125 10.0252L48 10.4877Z" fill="#CD3232"/>
<path d="M62 10.4877L61.4875 10.0252C60.6042 9.21686 59.875 8.51895 59.3 7.93145C58.725 7.34395 58.2667 6.81895 57.925 6.35645C57.5833 5.89395 57.3437 5.4752 57.2062 5.1002C57.0687 4.7252 57 4.34603 57 3.9627C57 3.2127 57.2521 2.58561 57.7563 2.08145C58.2604 1.57728 58.8833 1.3252 59.625 1.3252C60.1 1.3252 60.5396 1.4377 60.9437 1.6627C61.3479 1.8877 61.7 2.2127 62 2.6377C62.35 2.1877 62.7208 1.85645 63.1125 1.64395C63.5042 1.43145 63.925 1.3252 64.375 1.3252C65.1167 1.3252 65.7396 1.57728 66.2437 2.08145C66.7479 2.58561 67 3.2127 67 3.9627C67 4.34603 66.9312 4.7252 66.7937 5.1002C66.6562 5.4752 66.4167 5.89395 66.075 6.35645C65.7333 6.81895 65.275 7.34395 64.7 7.93145C64.125 8.51895 63.3958 9.21686 62.5125 10.0252L62 10.4877Z" fill="#CD3232"/>
</svg>
