<svg width="30" height="31" viewBox="0 0 30 31" fill="none" xmlns="http://www.w3.org/2000/svg">
<path d="M15 27.1826L13.7188 26.0264C11.5104 24.0055 9.6875 22.2607 8.25 20.792C6.8125 19.3232 5.66667 18.0107 4.8125 16.8545C3.95833 15.6982 3.35937 14.6514 3.01562 13.7139C2.67187 12.7764 2.5 11.8285 2.5 10.8701C2.5 8.99512 3.13021 7.42741 4.39063 6.16699C5.65104 4.90658 7.20833 4.27637 9.0625 4.27637C10.25 4.27637 11.349 4.55762 12.3594 5.12012C13.3698 5.68262 14.25 6.49512 15 7.55762C15.875 6.43262 16.8021 5.60449 17.7813 5.07324C18.7604 4.54199 19.8125 4.27637 20.9375 4.27637C22.7917 4.27637 24.349 4.90658 25.6094 6.16699C26.8698 7.42741 27.5 8.99512 27.5 10.8701C27.5 11.8285 27.3281 12.7764 26.9844 13.7139C26.6406 14.6514 26.0417 15.6982 25.1875 16.8545C24.3333 18.0107 23.1875 19.3232 21.75 20.792C20.3125 22.2607 18.4896 24.0055 16.2812 26.0264L15 27.1826ZM15 24.7139C17.1042 22.7764 18.8385 21.1149 20.2031 19.7295C21.5677 18.3441 22.651 17.1305 23.4531 16.0889C24.2552 15.0472 24.8177 14.1201 25.1406 13.3076C25.4635 12.4951 25.625 11.6826 25.625 10.8701C25.625 9.49512 25.1875 8.36491 24.3125 7.47949C23.4375 6.59408 22.3125 6.15137 20.9375 6.15137C19.875 6.15137 18.8854 6.47949 17.9688 7.13574C17.0521 7.79199 16.3125 8.71387 15.75 9.90137H14.2188C13.6771 8.7347 12.9479 7.81803 12.0312 7.15137C11.1146 6.4847 10.125 6.15137 9.0625 6.15137C7.6875 6.15137 6.5625 6.59408 5.6875 7.47949C4.8125 8.36491 4.375 9.49512 4.375 10.8701C4.375 11.6826 4.53646 12.5003 4.85938 13.3232C5.18229 14.1462 5.74479 15.0837 6.54688 16.1357C7.34896 17.1878 8.4375 18.4014 9.8125 19.7764C11.1875 21.1514 12.9167 22.7972 15 24.7139Z" fill="black"/>
</svg>
