<svg width="61" height="108" viewBox="0 0 61 108" fill="none" xmlns="http://www.w3.org/2000/svg">
<path d="M0.648071 107.814C1.82282 106.933 2.44363 105.648 2.70388 104.583C7.04291 86.8315 9.91854 72.4278 12.6892 60.2368C15.6261 47.3146 20.8556 22.3512 24.4367 3.84898C24.6192 2.90582 24.143 1.79317 22.9683 0.912109C25.0241 0.912109 26.9437 0.912109 29.4294 0.912109C31.915 0.912109 34.1283 0.912109 35.8905 0.912109C30.3104 24.687 24.4367 47.3146 22.0872 57.8873C19.7377 68.46 15.1225 88.137 11.2208 103.996C13.1328 104.092 20.9124 103.702 26.3445 103.409C39.0594 103.409 53.192 100.239 60.2664 98.7097C59.9796 99.6658 58.2106 102.234 57.3296 103.996C56.7422 105.171 55.8612 106.346 54.9801 107.971H24.7671C18.075 107.971 6.5218 107.814 0.648071 107.814Z" fill="white"/>
</svg>
