<svg width="67" height="113" viewBox="0 0 67 113" fill="none" xmlns="http://www.w3.org/2000/svg">
<path d="M66.519 8.81069L63.876 18.3362C58.296 5.41399 38.3253 -1.04712 26.2841 10.4633C14.5598 21.6708 21.2914 31.1488 23.6409 35.0763C25.8858 38.8289 51.2475 67.548 53.3033 71.0723C55.3591 74.5965 60.0581 82.2324 55.0654 93.6861C51.6567 101.506 41.8604 112.788 25.9904 112.788C16.2988 112.788 6.9008 108.089 0.439697 101.322L2.78919 91.1705C5.13868 96.6349 8.34933 102.545 17.4735 105.152C46.2548 113.375 50.8137 91.807 48.6043 82.6536C46.5485 74.1367 23.1488 52.851 17.4735 43.887C12.825 36.5448 10.6932 30.9648 12.4808 20.6857C13.6556 13.9309 20.7041 3.35818 35.6821 0.714999C47.6645 -1.39954 61.9179 5.18856 66.519 8.81069Z" fill="white"/>
</svg>
