<svg width="67" height="109" viewBox="0 0 67 109" fill="none" xmlns="http://www.w3.org/2000/svg">
<path d="M5.17981 108.118C6.06087 107.237 7.0656 106.209 7.23561 105.475C9.87879 91.9653 15.1661 64.2724 16.3399 53.7861C11.3472 34.6965 7.23561 17.6626 2.83031 3.56568C2.6657 3.17186 0.605848 0.376414 0.187134 0.0414431C2.24294 0.0414431 3.2066 0.0414431 5.76718 0.0414431C8.32776 0.0414431 7.23561 0.0414431 9.41073 0.0414431C13.6967 14.1384 20.7452 38.2207 24.8568 51.4366C34.5485 36.7522 49.5815 14.1245 58.3371 1.77299e-07C59.8789 1.77299e-07 59.8055 9.16239e-05 62.4487 1.77299e-07C65.3153 -9.90001e-05 65.0919 0.0414433 66.5603 0.0414128C66.3947 0.249952 64.9686 1.21619 64.5045 1.80356C51.2222 18.6146 36.3106 40.8639 26.0316 56.1356C22.5073 70.2325 17.1683 94.6085 15.7525 106.062C15.7019 106.472 16.0462 107.531 16.3399 108.118C14.2841 108.118 12.9992 108.118 11.3472 108.118C9.61264 108.118 7.23561 108.118 5.17981 108.118Z" fill="white"/>
</svg>
